<?xml version="1.0" encoding="iso-8859-1"?>
<!-- Generator: Adobe Illustrator 27.0.0, SVG Export Plug-In . SVG Version: 6.00 Build 0)  -->
<svg version="1.1" id="Capa_1" xmlns="http://www.w3.org/2000/svg" xmlns:xlink="http://www.w3.org/1999/xlink" x="0px" y="0px"
	 viewBox="0 0 512 512" style="enable-background:new 0 0 512 512;" xml:space="preserve">
<g>
	<g>
		<g>
			<path style="fill-rule:evenodd;clip-rule:evenodd;fill:#FD6050;" d="M430.428,363.641l-8.754-273.314
				C420.259,46.17,385.525,10,341.347,10H170.653c-44.178,0-78.912,36.171-80.326,80.326l-8.754,273.314h79.04l40.163,40.163
				h110.449l40.163-40.163H430.428z"/>
			<path style="fill-rule:evenodd;clip-rule:evenodd;fill:#FDCB50;" d="M165.679,224.644L256,172.274l-89.522-51.908
				c-2.142-1.448-4.726-2.293-7.508-2.293c-7.411,0-13.419,6.002-13.419,13.405v81.594c-0.002,2.36,0.653,4.664,1.835,6.703
				C151.092,226.165,159.282,228.345,165.679,224.644z"/>
			<path style="fill-rule:evenodd;clip-rule:evenodd;fill:#FDCB50;" d="M256,172.274l90.321,52.37
				c6.397,3.701,14.588,1.521,18.293-4.87c1.182-2.039,1.837-4.342,1.835-6.703v-81.594c0-7.403-6.008-13.405-13.419-13.405
				c-2.782,0-5.365,0.845-7.508,2.293L256,172.274z"/>
			<polygon style="fill-rule:evenodd;clip-rule:evenodd;fill:#BC9AF4;" points="200.775,403.804 160.612,363.641 81.572,363.641 
				65.225,363.641 65.225,452.901 446.776,452.901 446.776,363.641 430.428,363.641 351.388,363.641 311.225,403.804 			"/>
			<path style="fill-rule:evenodd;clip-rule:evenodd;fill:#6864F7;" d="M35.102,452.901V502h441.796v-49.1
				C329.633,452.901,182.367,452.901,35.102,452.901z"/>
		</g>
		<path style="fill-rule:evenodd;clip-rule:evenodd;fill:#BC3C85;" d="M427.55,273.802c-50.265,29.741-108.914,46.81-171.55,46.81
			s-121.285-17.069-171.55-46.81l-2.877,89.839h79.04l40.163,40.163h110.449l40.163-40.163h79.04L427.55,273.802z"/>
	</g>
	<g>
		<path style="fill:#052A75;" d="M476.898,442.9h-20.123v-79.26c0-5.523-4.477-10-10-10h-6.663l-8.444-263.634
			C430.052,39.536,390.378,0,341.347,0H170.653c-49.031,0-88.705,39.536-90.321,90.006l-8.444,263.634h-6.663
			c-5.523,0-10,4.477-10,10v79.26H35.102c-5.523,0-10,4.477-10,10V502c0,5.523,4.477,10,10,10h441.796c5.523,0,10-4.477,10-10v-49.1
			C486.898,447.377,482.421,442.9,476.898,442.9z M100.322,90.646C101.591,51.032,132.484,20,170.653,20h170.694
			c38.17,0,69.063,31.032,70.332,70.647l8.424,262.994h-68.714c-2.652,0-5.196,1.054-7.071,2.929l-37.234,37.234H266V189.631
			l75.313,43.669c11.156,6.454,25.49,2.636,31.953-8.51c2.086-3.599,3.187-7.654,3.183-11.718v-81.593
			c0-12.906-10.505-23.405-23.418-23.405c-4.565,0-8.976,1.31-12.782,3.792L256,160.714l-84.249-48.85
			c-3.806-2.482-8.217-3.792-12.782-3.792c-12.913,0-23.418,10.5-23.418,23.405v81.583c-0.004,4.074,1.097,8.13,3.184,11.729
			c4.332,7.472,12.198,11.65,20.276,11.65c3.973,0,7.998-1.012,11.676-3.14c0.003-0.001,0.005-0.003,0.008-0.005L246,189.631
			v204.172h-41.083l-37.234-37.234c-1.875-1.875-4.419-2.929-7.071-2.929H91.898L100.322,90.646z M275.936,172.273l74.603-43.256
			c0.199-0.115,0.394-0.238,0.585-0.367c0.567-0.383,1.208-0.578,1.907-0.578c1.885,0,3.418,1.528,3.418,3.405v81.604
			c0,0.548-0.167,1.128-0.485,1.677c-0.936,1.614-3.014,2.167-4.626,1.234L275.936,172.273z M160.667,215.991
			c-1.617,0.934-3.694,0.381-4.63-1.234c-0.318-0.548-0.486-1.127-0.485-1.686v-81.593c0-1.877,1.534-3.405,3.418-3.405
			c0.698,0,1.34,0.194,1.907,0.578c0.191,0.129,0.386,0.251,0.585,0.367l74.603,43.256L160.667,215.991z M75.224,373.641h81.246
			l37.234,37.234c1.875,1.875,4.419,2.929,7.071,2.929h110.449c2.652,0,5.196-1.054,7.071-2.929l37.234-37.234h81.246v69.26H75.224
			V373.641z M466.898,492H45.102v-29.1h421.796V492z"/>
		<g>
			<path style="fill:#FD6050;" d="M502,162.26h-22.015c-5.523,0-10,4.477-10,10s4.477,10,10,10H502c5.523,0,10-4.477,10-10
				S507.523,162.26,502,162.26z"/>
			<path style="fill:#FD6050;" d="M473.521,120.632c1.696,0,3.416-0.432,4.991-1.341l19.065-11.007
				c4.783-2.761,6.422-8.877,3.66-13.66c-2.762-4.784-8.878-6.423-13.66-3.66l-19.065,11.007c-4.783,2.761-6.422,8.877-3.66,13.66
				C466.704,118.839,470.065,120.632,473.521,120.632z"/>
			<path style="fill:#FD6050;" d="M497.577,236.237l-19.065-11.007c-4.781-2.761-10.898-1.123-13.66,3.66s-1.123,10.899,3.66,13.66
				l19.065,11.007c1.575,0.909,3.294,1.341,4.991,1.341c3.456,0,6.817-1.793,8.669-5.001
				C503.999,245.114,502.36,238.998,497.577,236.237z"/>
			<path style="fill:#FD6050;" d="M32.015,182.26c5.523,0,10-4.477,10-10s-4.477-10-10-10H10c-5.523,0-10,4.477-10,10
				s4.477,10,10,10H32.015z"/>
			<path style="fill:#FD6050;" d="M43.489,101.97L24.423,90.963c-4.782-2.76-10.898-1.123-13.66,3.66
				c-2.762,4.783-1.123,10.899,3.66,13.66l19.065,11.007c1.575,0.909,3.294,1.341,4.991,1.341c3.456,0,6.817-1.793,8.669-5.001
				C49.91,110.847,48.271,104.731,43.489,101.97z"/>
			<path style="fill:#FD6050;" d="M33.489,225.229l-19.065,11.007c-4.783,2.761-6.422,8.877-3.66,13.66
				c1.852,3.208,5.213,5.001,8.669,5.001c1.696,0,3.416-0.432,4.991-1.341l19.065-11.007c4.783-2.761,6.422-8.877,3.66-13.66
				C44.387,224.107,38.272,222.467,33.489,225.229z"/>
		</g>
	</g>
</g>
<g>
</g>
<g>
</g>
<g>
</g>
<g>
</g>
<g>
</g>
<g>
</g>
<g>
</g>
<g>
</g>
<g>
</g>
<g>
</g>
<g>
</g>
<g>
</g>
<g>
</g>
<g>
</g>
<g>
</g>
</svg>
