<svg xmlns="http://www.w3.org/2000/svg" version="1.1" xmlns:xlink="http://www.w3.org/1999/xlink" width="512" height="512" x="0" y="0" viewBox="0 0 512 512" style="enable-background:new 0 0 512 512" xml:space="preserve" class=""><circle r="256" cx="256" cy="256" fill="#840012" shape="circle"></circle><g transform="matrix(0.7,0,0,0.7,76.80000457763674,76.80015163421632)"><path fill="#475da9" d="M384.461 62.755v406.676c0 18.077-14.654 32.732-32.732 32.732H72.104c-18.077 0-32.732-14.655-32.732-32.732V62.755c0-18.077 14.654-32.732 32.732-32.732h279.625c18.077.001 32.732 14.655 32.732 32.732z" opacity="1" data-original="#475da9" class=""></path><path d="M384.484 62.778v406.668c0 18.082-14.707 32.728-32.729 32.728H72.085c-18.082 0-32.729-14.646-32.729-32.728v-4.098h122.236c102.767 0 186.065-83.299 186.065-186.066V30.049h4.099c18.021 0 32.728 14.647 32.728 32.729z" opacity="1" fill="#00000012" data-original="#00000012" class=""></path><path fill="#e8f1f8" d="M74.384 65.033h275.068v402.12H74.384z" opacity="1" data-original="#e8f1f8" class=""></path><path d="M349.465 65.007v402.149H74.375v-30.801h125.37c65.638 0 118.86-53.283 118.86-118.92V65.007z" opacity="1" fill="#00000012" data-original="#00000012" class=""></path><path fill="#fdcf17" d="M166.837 174.932v-59.047l-.016-.001c-32.62 0-59.033 26.444-59.033 59.033 0 32.619 26.413 59.063 59.033 59.063 32.615 0 59.054-26.435 59.063-59.048z" opacity="1" data-original="#fdcf17"></path><path fill="#f14f4a" d="M225.885 174.28c0 32.604-26.451 59.056-59.056 59.056-16.332 0-31.067-6.628-41.777-17.28l41.777-41.776z" opacity="1" data-original="#f14f4a" class=""></path><path fill="#0e9c4a" d="m225.884 174.932.001-.015c0-32.584-26.435-59.023-59.048-59.032v59.047z" opacity="1" data-original="#0e9c4a"></path><g fill="#acbadf"><path d="M316.051 152.353c0 6.281-5.092 11.374-11.374 11.374h-38.619c-6.281 0-11.374-5.092-11.374-11.374 0-6.281 5.092-11.374 11.374-11.374h38.619c6.282 0 11.374 5.092 11.374 11.374zM316.051 196.232c0 6.281-5.092 11.374-11.374 11.374h-38.619c-6.281 0-11.374-5.092-11.374-11.374 0-6.281 5.092-11.374 11.374-11.374h38.619c6.282 0 11.374 5.093 11.374 11.374zM231.572 269.949c0 6.281-5.092 11.374-11.374 11.374H119.163c-6.281 0-11.374-5.092-11.374-11.374 0-6.281 5.092-11.374 11.374-11.374h101.036c6.281.001 11.373 5.093 11.373 11.374zM231.572 317.932c0 6.281-5.092 11.374-11.374 11.374H119.163c-6.281 0-11.374-5.092-11.374-11.374 0-6.281 5.092-11.374 11.374-11.374h101.036c6.281 0 11.373 5.093 11.373 11.374zM231.572 365.915c0 6.281-5.092 11.374-11.374 11.374H119.163c-6.281 0-11.374-5.092-11.374-11.374 0-6.281 5.092-11.374 11.374-11.374h101.036c6.281 0 11.373 5.092 11.373 11.374zM183.898 413.897c0 6.281-5.092 11.374-11.374 11.374h-53.361c-6.281 0-11.374-5.092-11.374-11.374 0-6.281 5.092-11.374 11.374-11.374h53.361c6.281.001 11.374 5.093 11.374 11.374z" fill="#acbadf" opacity="1" data-original="#acbadf" class=""></path></g><path fill="#f78721" d="M449.102 277.446c0 44.206-35.81 80.017-79.994 80.017s-80.017-35.81-80.017-80.017c0-44.183 35.833-79.993 80.017-79.993s79.994 35.81 79.994 79.993z" opacity="1" data-original="#f78721" class=""></path><path fill="#fdcf17" d="M423.781 277.45c0 30.215-24.476 54.692-54.676 54.692s-54.692-24.477-54.692-54.692c0-30.199 24.492-54.676 54.692-54.676 30.199 0 54.676 24.477 54.676 54.676z" opacity="1" data-original="#fdcf17"></path><path d="M423.785 277.438c0 30.206-24.499 54.706-54.662 54.706-19.977 0-37.451-10.713-47.022-26.695 8.167 4.874 17.782 7.683 28.011 7.683 30.163 0 54.662-24.455 54.662-54.706 0-10.186-2.766-19.757-7.639-27.924 15.981 9.529 26.65 27.003 26.65 46.936z" opacity="1" fill="#00000012" data-original="#00000012" class=""></path><path d="M355.376 298.085h17.128c5.696 0 10.313-4.617 10.313-10.313 0-5.696-4.617-10.313-10.313-10.313h-6.815c-5.696 0-10.313-4.617-10.313-10.313 0-5.696 4.617-10.313 10.313-10.313h17.128M369.094 306.657v-8.572M369.094 256.831v-8.572" style="stroke-width:1.5;stroke-linecap:round;stroke-linejoin:round;stroke-miterlimit:10" fill="none" stroke="#f78721" stroke-width="1.5" stroke-linecap="round" stroke-linejoin="round" stroke-miterlimit="1" data-original="#f78721"></path><path fill="#f78721" d="M472.614 488.688c0 7.448-6.038 13.485-13.485 13.485h-163.21c-7.448 0-13.485-6.038-13.485-13.485 0-7.448 6.038-13.485 13.485-13.485h163.21c7.448 0 13.485 6.037 13.485 13.485z" opacity="1" data-original="#f78721" class=""></path><path fill="#fdcf17" d="M455.76 461.717c0 7.448-6.038 13.485-13.485 13.485h-163.21c-7.448 0-13.485-6.038-13.485-13.485 0-7.448 6.038-13.485 13.485-13.485h163.21c7.448 0 13.485 6.038 13.485 13.485z" opacity="1" data-original="#fdcf17"></path><path fill="#f78721" d="M472.614 434.747c0 7.448-6.038 13.485-13.485 13.485h-163.21c-7.448 0-13.485-6.038-13.485-13.485 0-7.448 6.038-13.485 13.485-13.485h163.21c7.448-.001 13.485 6.037 13.485 13.485z" opacity="1" data-original="#f78721" class=""></path><path fill="#fdcf17" d="M455.76 407.776c0 7.448-6.038 13.485-13.485 13.485h-163.21c-7.448 0-13.485-6.038-13.485-13.485 0-7.448 6.038-13.485 13.485-13.485h163.21c7.448-.001 13.485 6.037 13.485 13.485z" opacity="1" data-original="#fdcf17"></path><path fill="#f78721" d="M472.614 380.805c0 7.448-6.038 13.485-13.485 13.485h-163.21c-7.448 0-13.485-6.038-13.485-13.485 0-7.448 6.038-13.485 13.485-13.485h163.21c7.448-.001 13.485 6.037 13.485 13.485z" opacity="1" data-original="#f78721" class=""></path><path fill="#fdcf17" d="M455.76 353.834c0 7.448-6.038 13.485-13.485 13.485h-163.21c-7.448 0-13.485-6.038-13.485-13.485 0-7.448 6.038-13.485 13.485-13.485h163.21c7.448 0 13.485 6.037 13.485 13.485z" opacity="1" data-original="#fdcf17"></path><path d="M472.614 488.677v.022c0 7.438-6.037 13.474-13.474 13.474h-32.135c7.437 0 13.497-6.037 13.497-13.474v-.022c0-7.438-6.06-13.474-13.497-13.474h32.135c7.437 0 13.474 6.036 13.474 13.474zM455.766 461.706v.022c0 7.438-6.037 13.474-13.497 13.474h-32.112c7.437 0 13.474-6.037 13.474-13.474v-.022c0-7.438-6.037-13.474-13.474-13.474h32.112c7.46 0 13.497 6.037 13.497 13.474zM472.614 434.735v.022c0 7.438-6.037 13.474-13.474 13.474h-32.135c7.437 0 13.497-6.037 13.497-13.474v-.022c0-7.438-6.06-13.474-13.497-13.474h32.135c7.437 0 13.474 6.037 13.474 13.474zM455.766 407.765v.022c0 7.438-6.037 13.474-13.497 13.474h-32.112c7.437 0 13.474-6.037 13.474-13.474v-.022c0-7.438-6.037-13.474-13.474-13.474h32.112c7.46-.001 13.497 6.036 13.497 13.474zM472.614 380.794v.022c0 7.438-6.037 13.474-13.474 13.474h-32.135c7.437 0 13.497-6.037 13.497-13.474v-.022c0-7.438-6.06-13.474-13.497-13.474h32.135c7.437-.001 13.474 6.036 13.474 13.474zM455.766 353.823v.022c0 7.438-6.037 13.474-13.497 13.474h-32.112c7.437 0 13.474-6.037 13.474-13.474v-.022c0-7.438-6.037-13.474-13.474-13.474h32.112c7.46 0 13.497 6.036 13.497 13.474z" opacity="1" fill="#00000012" data-original="#00000012" class=""></path><path fill="#d1660d" d="M306.256 64.343v3.476c0 7.194-5.832 13.025-13.025 13.025H130.553c-7.194 0-13.025-5.832-13.025-13.025v-3.476c0-10.482 8.497-18.979 18.979-18.979h7.069c9.814 0 17.769-7.955 17.769-17.769 0-9.814 7.955-17.769 17.769-17.769h65.556c9.814 0 17.769 7.955 17.769 17.769 0 9.814 7.955 17.769 17.769 17.769h7.069c10.482 0 18.979 8.497 18.979 18.979z" opacity="1" data-original="#d1660d" class=""></path><path d="M166.82 237.908c34.726 0 62.986-28.25 62.991-62.976v-.015c0-34.537-28.145-62.95-62.976-62.96-.003 0-.005.003-.008.003s-.005-.003-.008-.003c-34.715 0-62.96 28.245-62.96 62.96.001 34.736 28.246 62.991 62.961 62.991zm3.944-117.956c27.052 1.923 48.748 23.45 50.976 50.398h-50.976zm-2.962 58.909h53.936c-2.34 28.258-26.06 50.546-54.908 50.546-13.376 0-26.056-4.752-36.117-13.452zm-4.895-58.909v52.695l-37.988 37.986c-8.213-9.629-13.203-22.092-13.203-35.715 0-29.064 22.619-52.946 51.191-54.966zM266.061 167.654h38.618c8.435 0 15.299-6.864 15.299-15.299 0-8.44-6.864-15.304-15.299-15.304h-38.618c-8.44 0-15.304 6.864-15.304 15.304 0 8.435 6.864 15.299 15.304 15.299zm0-22.746h38.618c4.102 0 7.442 3.34 7.442 7.447 0 4.102-3.34 7.442-7.442 7.442h-38.618c-4.107 0-7.447-3.34-7.447-7.442 0-4.107 3.34-7.447 7.447-7.447zM304.679 211.535c8.435 0 15.299-6.864 15.299-15.304 0-8.435-6.864-15.299-15.299-15.299h-38.618c-8.44 0-15.304 6.864-15.304 15.299 0 8.44 6.864 15.304 15.304 15.304zm-46.065-15.304c0-4.102 3.34-7.442 7.447-7.442h38.618c4.102 0 7.442 3.34 7.442 7.442 0 4.107-3.34 7.447-7.442 7.447h-38.618c-4.107.001-7.447-3.339-7.447-7.447zM220.2 254.65H119.164c-8.44 0-15.304 6.864-15.304 15.299 0 8.44 6.864 15.304 15.304 15.304H220.2c8.435 0 15.299-6.864 15.299-15.304 0-8.435-6.864-15.299-15.299-15.299zm0 22.746H119.164c-4.107 0-7.447-3.34-7.447-7.447 0-4.102 3.34-7.442 7.447-7.442H220.2c4.102 0 7.442 3.34 7.442 7.442.001 4.107-3.34 7.447-7.442 7.447zM220.2 302.628H119.164c-8.44 0-15.304 6.864-15.304 15.304s6.864 15.304 15.304 15.304H220.2c8.435 0 15.299-6.864 15.299-15.304s-6.864-15.304-15.299-15.304zm0 22.752H119.164c-4.107 0-7.447-3.34-7.447-7.447s3.34-7.447 7.447-7.447H220.2c4.102 0 7.442 3.34 7.442 7.447s-3.34 7.447-7.442 7.447zM220.2 350.612H119.164c-8.44 0-15.304 6.864-15.304 15.304 0 8.435 6.864 15.299 15.304 15.299H220.2c8.435 0 15.299-6.864 15.299-15.299 0-8.44-6.864-15.304-15.299-15.304zm0 22.746H119.164c-4.107 0-7.447-3.34-7.447-7.442 0-4.107 3.34-7.447 7.447-7.447H220.2c4.102 0 7.442 3.34 7.442 7.447.001 4.102-3.34 7.442-7.442 7.442zM172.523 398.596h-53.36c-8.44 0-15.304 6.864-15.304 15.304 0 8.435 6.864 15.299 15.304 15.299h53.36c8.44 0 15.304-6.864 15.304-15.299 0-8.44-6.864-15.304-15.304-15.304zm0 22.746h-53.36c-4.107 0-7.447-3.34-7.447-7.442 0-4.107 3.34-7.447 7.447-7.447h53.36c4.107 0 7.447 3.34 7.447 7.447.001 4.102-3.339 7.442-7.447 7.442zM310.485 277.452c0 32.322 26.296 58.618 58.618 58.618 32.316 0 58.608-26.296 58.608-58.618 0-32.316-26.291-58.607-58.608-58.607-32.322 0-58.618 26.291-58.618 58.607zm58.618-50.751c27.984 0 50.751 22.767 50.751 50.751 0 27.989-22.767 50.761-50.751 50.761-27.989 0-50.761-22.772-50.761-50.761-.001-27.984 22.771-50.751 50.761-50.751z" fill="#000000" opacity="1" data-original="#000000" class=""></path><path d="M372.504 294.158h-17.13a3.93 3.93 0 0 0 0 7.856h9.79v4.644a3.93 3.93 0 0 0 7.856 0v-4.696c7.607-.281 13.724-6.514 13.724-14.194 0-7.852-6.389-14.24-14.24-14.24h-6.813c-3.524 0-6.389-2.864-6.389-6.383s2.864-6.384 6.389-6.384h17.125a3.93 3.93 0 0 0 0-7.856h-9.795v-4.644a3.93 3.93 0 0 0-7.856 0v4.698c-7.608.284-13.718 6.514-13.718 14.186 0 7.852 6.389 14.24 14.245 14.24h6.813a6.392 6.392 0 0 1 6.384 6.384c-.001 3.524-2.866 6.389-6.385 6.389z" fill="#000000" opacity="1" data-original="#000000" class=""></path><path d="M476.543 380.806c0-9.606-7.811-17.417-17.411-17.417h-2.326a17.288 17.288 0 0 0 2.884-9.555c0-9.606-7.811-17.417-17.417-17.417h-13.484c15.483-15.619 24.226-36.585 24.226-58.981 0-38.976-27.002-72.733-64.633-81.597V62.746c0-20.214-16.45-36.664-36.664-36.664h-85.502c-.793-11.248-10.099-20.184-21.544-20.184h-65.559c-11.441 0-20.746 8.936-21.539 20.184H72.121c-20.214 0-36.664 16.45-36.664 36.664v406.708c0 20.189 16.45 36.613 36.664 36.613l387.01.036c9.601 0 17.411-7.811 17.411-17.417 0-9.601-7.811-17.411-17.411-17.411h-2.326a17.288 17.288 0 0 0 2.884-9.555c0-3.532-1.072-6.813-2.884-9.56h2.327c9.601 0 17.411-7.811 17.411-17.411 0-9.606-7.811-17.417-17.411-17.417h-2.326a17.288 17.288 0 0 0 2.884-9.555c0-3.532-1.072-6.813-2.884-9.56h2.327c9.599 0 17.41-7.81 17.41-17.411zm-34.271-36.532c5.274 0 9.56 4.286 9.56 9.56 0 5.268-4.286 9.555-9.56 9.555H279.063c-5.268 0-9.555-4.286-9.555-9.555 0-5.274 4.286-9.56 9.555-9.56zM281.39 390.36h-2.326c-9.601 0-17.411 7.811-17.411 17.417 0 9.601 7.811 17.411 17.411 17.411h2.326a17.3 17.3 0 0 0-2.884 9.56c0 3.529 1.07 6.808 2.884 9.555h-2.326c-9.601 0-17.411 7.811-17.411 17.417 0 .514.107 1 .152 1.504h-183.5V68.976h35.41c.607 8.798 7.885 15.795 16.839 15.795h162.677c8.949 0 16.227-6.997 16.834-15.795h35.467v128.015c-35.693 10.409-60.393 43.012-60.393 80.446 0 22.391 8.772 43.357 24.308 58.981h-30.384c-9.601 0-17.411 7.811-17.411 17.417 0 9.601 7.811 17.411 17.411 17.411h2.326a17.3 17.3 0 0 0-2.884 9.56 17.286 17.286 0 0 0 2.885 9.554zm160.882 7.857c5.274 0 9.56 4.286 9.56 9.56 0 5.268-4.286 9.555-9.56 9.555H279.063c-5.268 0-9.555-4.286-9.555-9.555 0-5.274 4.286-9.56 9.555-9.56zm0 53.943c5.274 0 9.56 4.286 9.56 9.56 0 5.268-4.286 9.555-9.56 9.555H279.063c-5.268 0-9.555-4.286-9.555-9.555 0-5.274 4.286-9.56 9.555-9.56zm2.885-174.723c0 23.086-10.248 44.485-28.086 58.981h-95.883c-17.906-14.501-28.191-35.902-28.191-58.981 0-34.869 23.616-65.18 57.446-73.712 10.557-2.716 21.964-3.084 33.258-.941 35.61 6.925 61.456 38.321 61.456 74.653zm-93.44-243.499c15.882 0 28.808 12.926 28.808 28.808v131.696c-9.206-1.243-18.37-.987-27.135.698V65.047a3.93 3.93 0 0 0-3.928-3.928h-39.604c-1.584-11.094-11.053-19.682-22.579-19.682h-7.069c-5.334 0-9.919-3.066-12.23-7.499zm-186.442-6.343c0-7.632 6.204-13.841 13.836-13.841h65.559c7.632 0 13.841 6.21 13.841 13.841 0 11.362 9.36 21.698 21.698 21.698h7.069c8.297 0 15.048 6.752 15.048 15.048v3.478c0 5.013-4.082 9.094-9.094 9.094H130.555c-5.018 0-9.1-4.082-9.1-9.094v-3.478c0-8.297 6.752-15.048 15.053-15.048h7.069c12.28 0 21.698-10.286 21.698-21.698zM281.37 498.21H72.121c-15.887 0-28.808-12.9-28.808-28.756V62.746c0-15.882 12.92-28.808 28.808-28.808h83.686c-2.311 4.432-6.896 7.499-12.23 7.499h-7.069c-11.53 0-21 8.588-22.584 19.682H74.377a3.93 3.93 0 0 0-3.928 3.928v402.104a3.93 3.93 0 0 0 3.928 3.928H264.43c6.07 9.455 16.299 7.897 16.96 8.051a17.288 17.288 0 0 0-2.884 9.555c0 3.52 1.065 6.783 2.864 9.525zm177.761-19.079c5.268 0 9.555 4.286 9.555 9.555 0 5.274-4.286 9.56-9.555 9.56H295.917c-5.268 0-9.555-4.286-9.555-9.56 0-5.268 4.286-9.555 9.555-9.555zm0-53.943c5.268 0 9.555 4.286 9.555 9.56 0 5.268-4.286 9.555-9.555 9.555H295.917c-5.268 0-9.555-4.286-9.555-9.555 0-5.274 4.286-9.56 9.555-9.56zM295.917 390.36c-5.268 0-9.555-4.286-9.555-9.555 0-5.274 4.286-9.56 9.555-9.56h163.214c5.268 0 9.555 4.286 9.555 9.56 0 5.268-4.286 9.555-9.555 9.555H295.917z" fill="#000000" opacity="1" data-original="#000000" class=""></path></g></svg>