<svg xmlns="http://www.w3.org/2000/svg" version="1.1" xmlns:xlink="http://www.w3.org/1999/xlink" width="512" height="512" x="0" y="0" viewBox="0 0 60 60" style="enable-background:new 0 0 512 512" xml:space="preserve" class=""><circle r="30" cx="30" cy="30" fill="#840012" shape="circle"></circle><g transform="matrix(0.7,0,0,0.7,9.000868034362796,8.997298049926759)"><path fill="#b5cedd" d="M6 42a5 5 0 0 1-5-5V3a2.006 2.006 0 0 1 2-2h28a2.006 2.006 0 0 1 2 2v2L11 42z" opacity="1" data-original="#b5cedd"></path><path fill="#c4ddf0" d="M22 5v37H6a5.055 5.055 0 0 0 5-5V10a5 5 0 0 1 5-5z" opacity="1" data-original="#c4ddf0" class=""></path><path fill="#e4f1ff" d="M53 10v25.05l-16.51 19.8-2.01 1.88a.991.991 0 0 1-1.36 0l-1.84-1.72a.991.991 0 0 0-1.36 0l-1.84 1.72a.991.991 0 0 1-1.36 0l-1.84-1.72a.991.991 0 0 0-1.36 0l-.84.78a1 1 0 0 1-1.68-.73V10a4.985 4.985 0 0 0-5-5h32a5 5 0 0 1 5 5z" opacity="1" data-original="#e4f1ff" class=""></path><circle cx="46" cy="46" r="13" fill="#cd596b" opacity="1" data-original="#cd596b"></circle><g fill="#373737"><path d="M46 32a13.986 13.986 0 0 0-10.893 22.775L33.8 56l-1.835-1.717a1.99 1.99 0 0 0-2.731 0L27.4 56l-1.835-1.717a1.991 1.991 0 0 0-2.728-.006L22 55.06V10a5.992 5.992 0 0 0-1.531-4H48a4 4 0 0 1 4 4v21a1 1 0 0 0 2 0V10a6.006 6.006 0 0 0-6-6H34V3a3 3 0 0 0-3-3H3a3 3 0 0 0-3 3v34a6.006 6.006 0 0 0 6 6h14v12.06a2 2 0 0 0 3.36 1.462l.837-.782 1.835 1.717a1.991 1.991 0 0 0 2.731 0L30.6 55.74l1.835 1.717a1.992 1.992 0 0 0 2.731 0l1.313-1.228A13.991 13.991 0 1 0 46 32zM2 37V3a1 1 0 0 1 1-1h28a1 1 0 0 1 1 1v1H16a6.006 6.006 0 0 0-6 6v27a4 4 0 0 1-8 0zm8.469 4A5.985 5.985 0 0 0 12 37V10a4 4 0 1 1 8 0v31zM46 58a12 12 0 1 1 12-12 12.013 12.013 0 0 1-12 12z" fill="#373737" opacity="1" data-original="#373737"></path><path d="M37 9a1 1 0 0 0-1 1v.123h-.006A3.975 3.975 0 0 0 33.121 13a4.031 4.031 0 0 0 .7 3.425A3.987 3.987 0 0 0 36.9 18a2.126 2.126 0 0 1 2.081 1.715A2 2 0 0 1 37 22a2.009 2.009 0 0 1-1.733-1 1 1 0 0 0-1.731 1A4.015 4.015 0 0 0 36 23.87V24a1 1 0 0 0 2 0v-.141a3.972 3.972 0 0 0 2.963-4.415A4.117 4.117 0 0 0 36.949 16a2 2 0 0 1-.474-3.934 2.023 2.023 0 0 1 2.258.934 1 1 0 0 0 1.731-1A3.972 3.972 0 0 0 38 10.132V10a1 1 0 0 0-1-1zM51.707 40.293a1 1 0 0 0-1.414 0L46 44.586l-4.293-4.293a1 1 0 0 0-1.414 1.414L44.586 46l-4.293 4.293a1 1 0 1 0 1.414 1.414L46 47.414l4.293 4.293a1 1 0 0 0 1.414-1.414L47.414 46l4.293-4.293a1 1 0 0 0 0-1.414zM49 29a1 1 0 0 0-1-1H26a1 1 0 0 0 0 2h22a1 1 0 0 0 1-1zM35 34a1 1 0 0 0-1-1h-8a1 1 0 0 0 0 2h8a1 1 0 0 0 1-1zM32 39a1 1 0 0 0-1-1h-5a1 1 0 0 0 0 2h5a1 1 0 0 0 1-1zM29 43h-3a1 1 0 0 0 0 2h3a1 1 0 0 0 0-2zM29 48h-3a1 1 0 0 0 0 2h3a1 1 0 0 0 0-2z" fill="#373737" opacity="1" data-original="#373737"></path></g></g></svg>