<svg xmlns="http://www.w3.org/2000/svg" version="1.1" xmlns:xlink="http://www.w3.org/1999/xlink" width="512" height="512" x="0" y="0" viewBox="0 0 512 512" style="enable-background:new 0 0 512 512" xml:space="preserve" class=""><g><circle cx="256" cy="267" r="245" style="" fill="#840012" data-original="#445ea0" class="" opacity="1"></circle><path d="M100.718 421.644c-2.75 0-5-2.25-5-5V71.247H62.635c-2.75 0-5 2.25-5 5v334.546a246.426 246.426 0 0 0 47.084 48.935h276.398c2.75 0 5-2.25 5-5v-33.083l-285.399-.001z" style="" fill="#ffaf10" data-original="#ffaf10" class=""></path><path d="M76.635 76.247c0-2.75 2.25-5 5-5h-19c-2.75 0-5 2.25-5 5v334.546a247.092 247.092 0 0 0 19 23.085V76.247z" style="" fill="#ef9614" data-original="#ef9614" class=""></path><path d="M133.718 385.646c-2.75 0-5-2.25-5-5V35.998H97.883c-2.75 0-5 2.25-5 5v378.48c0 2.751 2.25 5 5 5h318.484c2.75 0 5-2.249 5-5v-33.832H133.718z" style="" fill="#ff9518" data-original="#ff9518" class=""></path><path d="M110.883 419.478V40.998c0-2.75 2.25-5 5-5h-18c-2.75 0-5 2.25-5 5v378.48c0 2.751 2.25 5 5 5h18c-2.75 0-5-2.249-5-5z" style="" fill="#ef8318" data-original="#ef8318" class=""></path><path d="M454.365 383.48c0 2.75-2.25 5-5 5H130.883c-2.75 0-5-2.25-5-5V5c0-2.75 2.25-5 5-5h318.482c2.75 0 5 2.25 5 5v378.48z" style="" fill="#d9eafc" data-original="#d9eafc" class=""></path><path d="M145.727 383.48V5c0-2.75 2.25-5 5-5h-19.845c-2.75 0-5 2.25-5 5v378.48c0 2.75 2.25 5 5 5h19.845c-2.75 0-5-2.25-5-5z" style="" fill="#c3ddf4" data-original="#c3ddf4" class=""></path><path d="M415.09 50.794h-69.561a7.499 7.499 0 0 1-7.5-7.5 7.5 7.5 0 0 1 7.5-7.5h69.561a7.5 7.5 0 0 1 7.5 7.5 7.5 7.5 0 0 1-7.5 7.5zM415.09 76.293h-69.561a7.5 7.5 0 0 1-7.5-7.5c0-4.143 3.357-7.5 7.5-7.5h69.561a7.5 7.5 0 0 1 0 15zM415.09 101.791h-69.561c-4.143 0-7.5-3.358-7.5-7.5s3.357-7.5 7.5-7.5h69.561a7.5 7.5 0 0 1 7.5 7.5 7.5 7.5 0 0 1-7.5 7.5zM415.09 127.29h-69.561a7.5 7.5 0 0 1-7.5-7.5c0-4.143 3.357-7.5 7.5-7.5h69.561a7.5 7.5 0 0 1 0 15z" style="" fill="#db722c" data-original="#db722c" class=""></path><path d="M285.397 305.281H168.238c-4.143 0-7.5-3.358-7.5-7.5s3.357-7.5 7.5-7.5h117.158a7.5 7.5 0 0 1 7.5 7.5 7.499 7.499 0 0 1-7.499 7.5zM285.397 330.779H168.238a7.499 7.499 0 0 1-7.5-7.5 7.5 7.5 0 0 1 7.5-7.5h117.158a7.5 7.5 0 0 1 7.5 7.5 7.498 7.498 0 0 1-7.499 7.5zM285.397 356.278H168.238a7.499 7.499 0 0 1-7.5-7.5 7.5 7.5 0 0 1 7.5-7.5h117.158a7.5 7.5 0 0 1 7.5 7.5 7.499 7.499 0 0 1-7.499 7.5z" style="" fill="#52bbef" data-original="#52bbef" class=""></path><path d="M415.09 171.788H308.358c-4.143 0-7.5-3.358-7.5-7.5s3.357-7.5 7.5-7.5H415.09a7.5 7.5 0 0 1 0 15zM415.09 197.287H308.358c-4.143 0-7.5-3.358-7.5-7.5s3.357-7.5 7.5-7.5H415.09a7.5 7.5 0 0 1 0 15zM415.09 222.785H308.358a7.5 7.5 0 0 1 0-15H415.09a7.5 7.5 0 0 1 0 15zM415.09 248.283H308.358c-4.143 0-7.5-3.358-7.5-7.5s3.357-7.5 7.5-7.5H415.09a7.5 7.5 0 0 1 0 15zM154.77 215.755h29.242c0-16.15 13.091-29.243 29.241-29.243v-29.24c-32.297 0-58.483 26.183-58.483 58.483z" style="" fill="#fe3745" data-original="#fe3745" class=""></path><path d="M228.084 142.442v29.241c16.15 0 29.241 13.091 29.241 29.241h29.243c0-32.3-26.185-58.482-58.484-58.482z" style="" fill="#91e0e8" data-original="#91e0e8" class=""></path><path d="M242.494 215.755c0 16.148-13.09 29.241-29.24 29.241s-29.241-13.093-29.241-29.241H154.77c0 32.298 26.186 58.483 58.483 58.483 32.299 0 58.484-26.185 58.484-58.483h-29.243zM188.359 115.124V45.29c0-1.65-1.35-3-3-3h-18.182c-1.65 0-3 1.35-3 3v69.834h24.182z" style="" fill="#ffaf10" data-original="#ffaf10" class=""></path><path d="M227.476 115.124V64.29c0-1.65-1.35-3-3-3h-18.181c-1.65 0-3 1.35-3 3v50.834h24.181z" style="" fill="#fe3745" data-original="#fe3745" class=""></path><path d="M266.592 115.124V87.29c0-1.65-1.35-3-3-3h-18.181c-1.65 0-3 1.35-3 3v27.834h24.181z" style="" fill="#37c47a" data-original="#37c47a" class=""></path><path d="M305.709 115.124V45.29c0-1.65-1.35-3-3-3h-18.182c-1.65 0-3 1.35-3 3v69.834h24.182z" style="" fill="#91e0e8" data-original="#91e0e8" class=""></path><path d="M379.592 319.708c0-1.654 1.346-3 3-3h13.561v-33.56c0-2.75-2.25-5-5-5h-45.121c-2.75 0-5 2.25-5 5v45.121c0 2.75 2.25 5 5 5h33.56v-13.561z" style="" fill="#fe3745" data-original="#fe3745" class=""></path><path d="M415.09 347.206c0 2.75-2.25 5-5 5h-27.498c-2.75 0-5-2.25-5-5v-27.498c0-2.75 2.25-5 5-5h27.498c2.75 0 5 2.25 5 5v27.498z" style="" fill="#37c47a" data-original="#37c47a" class=""></path><path d="M310.879 127.29H159.008a7.5 7.5 0 0 1-7.5-7.5c0-4.143 3.357-7.5 7.5-7.5h151.871c4.143 0 7.5 3.357 7.5 7.5a7.5 7.5 0 0 1-7.5 7.5z" style="" fill="#52bbef" data-original="#52bbef" class=""></path></g></svg>